<?xml version="1.0" standalone="no"?>
<!DOCTYPE svg PUBLIC "-//W3C//DTD SVG 20010904//EN"
 "http://www.w3.org/TR/2001/REC-SVG-20010904/DTD/svg10.dtd">
<svg version="1.0" xmlns="http://www.w3.org/2000/svg"
 width="1080.000000pt" height="1080.000000pt" viewBox="0 0 1080.000000 1080.000000"
 preserveAspectRatio="xMidYMid meet">

<g transform="translate(0.000000,1080.000000) scale(0.100000,-0.100000)"
fill="#000000" stroke="none">
<path d="M3650 5400 c0 -627 3 -950 10 -950 7 0 10 323 10 950 0 627 -3 950
-10 950 -7 0 -10 -323 -10 -950z"/>
<path d="M2177 5945 c-12 -14 -42 -44 -66 -67 -23 -24 -55 -63 -69 -88 -15
-25 -34 -52 -44 -60 -23 -20 -25 -38 -11 -85 7 -22 15 -61 18 -88 4 -26 19
-73 36 -103 16 -31 29 -64 29 -73 0 -24 31 -51 59 -51 12 0 39 -9 60 -20 63
-32 148 -41 222 -24 35 8 75 15 88 14 32 0 71 26 71 48 0 19 26 47 72 75 25
16 28 22 26 75 0 31 2 72 6 89 10 43 -10 137 -40 192 -13 24 -24 51 -24 60 0
28 -30 61 -55 61 -13 0 -47 12 -77 28 -46 24 -65 27 -145 27 -51 1 -95 4 -99
8 -14 13 -35 7 -57 -18z m57 -21 c19 -19 20 -26 4 -42 -18 -18 -46 -14 -58 7
-7 15 -6 23 6 35 19 20 29 20 48 0z m214 -44 c23 -10 42 -21 42 -24 0 -9 -119
-86 -132 -85 -18 0 -96 101 -91 117 7 20 130 15 181 -8z m131 -24 c18 -21 2
-46 -29 -46 -31 0 -47 25 -29 46 6 8 19 14 29 14 10 0 23 -6 29 -14z m-380
-12 c22 -5 44 -22 71 -57 22 -27 40 -52 40 -56 0 -3 -25 -32 -55 -63 l-55 -58
-50 31 c-45 28 -80 70 -80 98 0 13 78 111 89 111 5 0 23 -3 40 -6z m279 -121
c-18 -31 -38 -58 -45 -60 -11 -4 -49 54 -41 62 23 22 114 73 116 65 2 -6 -11
-36 -30 -67z m125 9 c23 -57 30 -107 23 -155 -6 -38 -11 -45 -41 -56 -19 -7
-49 -9 -68 -6 -28 6 -36 13 -46 43 -12 36 -11 40 33 106 25 39 48 78 52 88 9
30 31 20 47 -20z m-545 -34 c15 -15 -3 -48 -27 -48 -24 0 -43 23 -35 44 7 19
45 21 62 4z m315 -56 c18 -30 18 -34 3 -57 -9 -14 -25 -25 -35 -25 -27 0 -81
21 -81 31 0 16 72 90 84 86 6 -2 19 -18 29 -35z m-254 -43 l50 -32 -26 -46
c-42 -74 -49 -78 -67 -44 -21 41 -39 119 -32 138 8 21 18 19 75 -16z m140 -70
c39 -14 39 -22 -1 -52 -73 -54 -87 -61 -94 -43 -6 15 43 106 57 106 3 0 20 -5
38 -11z m380 -43 c23 -28 -17 -68 -45 -45 -15 12 -19 41 -7 52 11 12 40 8 52
-7z m-196 -15 c34 -32 18 -123 -24 -136 -45 -15 -155 -8 -192 12 l-36 18 82
62 c76 57 85 61 122 56 22 -3 43 -8 48 -12z m114 -27 c7 -18 -14 -35 -34 -27
-7 3 -13 14 -13 24 0 24 38 26 47 3z m-404 -46 c13 -20 -6 -48 -34 -48 -28 0
-43 35 -23 55 19 19 43 16 57 -7z m386 -22 c22 -26 -10 -63 -43 -50 -35 13
-24 64 14 64 10 0 23 -6 29 -14z"/>
<path d="M5120 5921 c-72 -22 -118 -62 -147 -126 -15 -35 -18 -80 -21 -347 -4
-313 4 -422 33 -479 37 -71 109 -108 210 -109 122 0 183 30 228 114 21 40 22
53 25 386 3 239 0 362 -8 399 -16 73 -73 135 -143 156 -53 16 -135 18 -177 6z
m141 -167 l24 -26 3 -326 c2 -308 1 -329 -17 -358 -33 -55 -115 -53 -140 2 -7
17 -11 131 -11 355 l0 330 25 24 c33 34 83 34 116 -1z"/>
<path d="M6535 5914 c-92 -34 -134 -107 -142 -250 l-6 -94 82 0 81 0 0 70 c0
74 17 123 45 134 9 3 32 6 51 6 42 0 65 -32 72 -100 9 -97 -38 -190 -172 -340
-41 -47 -87 -106 -101 -132 -33 -61 -55 -162 -55 -260 l0 -78 240 0 240 0 0
75 0 75 -155 0 -155 0 0 37 c0 55 32 110 126 219 152 175 196 260 196 384 0
101 -18 156 -67 206 -62 62 -185 83 -280 48z"/>
<path d="M8189 5902 c-45 -24 -59 -37 -84 -87 l-30 -59 0 -360 c0 -347 1 -363
21 -407 41 -89 108 -128 219 -129 53 0 82 6 121 24 87 41 113 97 121 264 l6
112 -82 0 -81 0 0 -99 c0 -84 -3 -102 -21 -125 -29 -37 -89 -37 -118 0 -20 26
-21 38 -21 359 0 321 1 333 21 359 15 20 29 26 57 26 66 0 82 -27 82 -134 l0
-76 82 0 81 0 -6 97 c-9 135 -39 197 -116 236 -78 39 -176 39 -252 -1z"/>
<path d="M5527 5913 c-2 -5 20 -237 49 -518 29 -280 53 -513 54 -517 0 -7 220
-12 220 -5 1 31 72 662 75 665 3 3 5 2 5 -1 0 -4 16 -152 35 -329 19 -178 35
-326 35 -330 0 -5 47 -8 105 -8 77 0 105 3 105 13 0 6 23 232 50 502 28 269
50 500 50 512 0 22 -4 23 -69 23 l-70 0 -6 -52 c-3 -29 -19 -201 -35 -382 -16
-181 -32 -331 -35 -334 -3 -3 -5 1 -5 9 0 8 -16 174 -35 369 -19 195 -35 363
-35 373 0 16 -9 17 -92 15 l-93 -3 -36 -377 c-19 -208 -39 -381 -42 -385 -4
-3 -7 2 -7 13 0 31 -61 707 -66 732 -4 20 -10 22 -79 22 -40 0 -76 -3 -78 -7z"/>
<path d="M6950 5845 l0 -75 85 0 85 0 0 -450 0 -450 85 0 85 0 0 450 0 450 85
0 85 0 0 75 0 75 -255 0 -255 0 0 -75z"/>
<path d="M7540 5395 l0 -525 225 0 225 0 0 75 0 75 -140 0 -140 0 0 160 0 160
110 0 110 0 0 75 0 74 -112 3 -113 3 0 135 0 135 143 3 143 3 -3 72 -3 72
-222 3 -223 2 0 -525z"/>
<path d="M8660 5395 l0 -525 80 0 80 0 0 235 0 235 90 0 90 0 0 -235 0 -235
80 0 80 0 0 525 0 525 -80 0 -80 0 -2 -212 -3 -213 -85 0 -85 0 -3 213 -2 212
-80 0 -80 0 0 -525z"/>
<path d="M4360 5390 l0 -520 150 0 c207 0 262 20 313 115 21 38 22 54 25 375
4 376 -1 420 -51 477 -56 63 -90 73 -274 73 l-163 0 0 -520z m303 351 c22 -21
22 -25 22 -352 l0 -331 -24 -19 c-17 -14 -39 -19 -82 -19 l-59 0 0 368 c0 203
3 372 8 376 15 16 113 0 135 -23z"/>
<path d="M2002 5175 c-136 -59 -198 -93 -225 -123 -32 -35 -62 -307 -37 -337
11 -13 86 -15 585 -15 513 0 573 2 579 16 9 24 7 192 -4 258 -5 32 -17 68 -27
79 -17 19 -230 126 -320 160 l-42 16 -56 -94 c-31 -52 -58 -102 -61 -110 -4
-8 -11 -15 -16 -15 -10 0 -7 145 3 180 3 12 -7 15 -56 15 l-60 0 4 -92 c1 -53
-1 -93 -6 -93 -5 0 -31 38 -57 85 -78 139 -61 133 -204 70z"/>
</g>
</svg>
